<svg id="Layer_1" data-name="Layer 1" xmlns="http://www.w3.org/2000/svg" viewBox="0 0 1048.91286 1083.22866"><defs><style>.cls-1{fill:#be1e2d;}.cls-2{fill:none;stroke:#00a651;stroke-miterlimit:10;stroke-width:18px;}.cls-3{fill:#2e3192;}.cls-4{fill:#fff200;}.cls-5{fill:#f15a29;}.cls-6{fill:#00a651;}.cls-7{fill:#ec008c;}.cls-8{fill:#ed1c24;}</style></defs><rect class="cls-1" x="293.88221" y="823.95429" width="372.08376" height="89.99838" rx="27.30111" transform="translate(116.95251 -186.27847) rotate(14.47859)"/><rect class="cls-1" x="257.94462" y="783.99736" width="113.38028" height="132.98737" rx="56.69008" transform="translate(413.66794 -124.46606) rotate(33.98909)"/><ellipse class="cls-2" cx="726.50342" cy="457.8021" rx="284.52136" ry="364.08451" transform="translate(-231.49918 197.62521) rotate(-21.0509)"/><rect class="cls-3" x="549.916" y="308.97667" width="383.74096" height="653.78366" rx="5.55747" transform="translate(-350.45703 567.14535) rotate(-42.07936)"/><rect class="cls-3" x="527.84685" y="432.52757" width="150.48084" height="654.04461" rx="39.80618" transform="translate(-434.72877 365.59127) rotate(-33.52726)"/><rect class="cls-3" x="814.25016" y="172.77316" width="150.48084" height="654.04461" rx="39.80618" transform="translate(-196.48316 720.95629) rotate(-47.317)"/><path class="cls-4" d="M328.74019,1007.34929c-16.03708-3.60582-48.18385,49.49371-35.52284,70.14471,7.42687,12.11377,30.795,13.91577,43.54412,2.55071C358.2088,1060.92561,342.888,1010.53032,328.74019,1007.34929Z" transform="translate(-115.54357 -93.88567)"/><path class="cls-3" d="M262.33292,1056.57686c-16.03708-3.60582-48.18385,49.49371-35.52284,70.14472,7.42687,12.11376,30.795,13.91576,43.54412,2.55071C291.80153,1110.15319,276.48069,1059.7579,262.33292,1056.57686Z" transform="translate(-115.54357 -93.88567)"/><path class="cls-5" d="M362.404,1096.81434c-16.03709-3.60583-48.18386,49.4937-35.52284,70.14471,7.42686,12.11376,30.795,13.91576,43.54412,2.55071C391.87258,1150.39066,376.55174,1099.99537,362.404,1096.81434Z" transform="translate(-115.54357 -93.88567)"/><path class="cls-6" d="M205.26472,1001.80116c-16.03708-3.60582-48.18385,49.49371-35.52284,70.14471,7.42687,12.11377,30.795,13.91577,43.54412,2.55071C234.73333,1055.37748,219.41249,1004.9822,205.26472,1001.80116Z" transform="translate(-115.54357 -93.88567)"/><path class="cls-7" d="M153.95227,1077.90624c-16.03708-3.60582-48.18385,49.49371-35.52284,70.14472,7.42687,12.11376,30.79505,13.91576,43.54412,2.55071C183.42088,1131.48257,168.1,1081.08728,153.95227,1077.90624Z" transform="translate(-115.54357 -93.88567)"/><path class="cls-8" d="M276.80167,932.79856c-16.03708-3.60582-48.18385,49.49371-35.52284,70.14471,7.42687,12.11377,30.795,13.91577,43.54412,2.55071C306.27028,986.37488,290.94944,935.97959,276.80167,932.79856Z" transform="translate(-115.54357 -93.88567)"/></svg>